<svg class="diagram-root" style="background: #f5f6f6" xmlns="http://www.w3.org/2000/svg" xmlns:xlink="http://www.w3.org/1999/xlink"><style>.diagram-root { font-family: "Helvetica Neue", sans-serif; font-size: 12px; } .t { overflow: visible; } .t-bg { y: 40; fill: #fff;   } .th { fill: #005aa0;   } .tht { fill: #fff; font-size: 14px;  } .tf { fill: #323c46; overflow: visible; } .tf.pk { fill: #005aa0; font-weight: bold; } .tf.fk { font-weight: bold; } .ty { fill: #adb1b5; font-weight: normal; text-anchor: end; } .r { fill: transparent; stroke: #c3c3c3; stroke-width: 1; } .l { stroke: 1; } .i { fill: #c2c7ce; stroke: #c2c7ce; } .i.ix { fill: #afb3b6; stroke: #000; } .fa { fill: transparent; overflow: visible; } .fa .bg.hover { fill: #f7f7f7; } .c { cy: 12; r: 4; stroke: #d2d2dc; fill: #d2d2dc; } .hr { fill: transparent; stroke: #323c46; stroke-opacity: 0.035; stroke-width: 13; } .dc { stroke: #fa5a3c; fill: #fa5a3c; } .x { stroke: white; stroke-width: 1; } .hl .th { fill: #1b9bff; } .hl .tht {  } .fhl .bg { fill: #e7f4ff; } .fhls .bg {  } .r.hl { stroke: #1b9bff; } .dim { opacity: 0.25; }</style><g class="drawing-wrapper" transform="translate(109, 361) scale(1,1)"><g class="rs"><path d="M 84.16 -153 m -1, 0 a 1,1 0 1,0 2,0 a 1,1 0 1,0 -2,0 M 84.16 -153 m -0.5, 0 a 0.5,0.5 0 1,0 1,0 a 0.5,0.5 0 1,0 -1,0  M84.16 -153 L84.16 -153 96.16 -153 M90.16 -147 L90.16 -147 90.16 -159 M96.16 -153 C 136.49476636572695 -153, 137.10676636572694 -274, 95.14 -274 M 83.14 -274 m -1, 0 a 1,1 0 1,0 2,0 a 1,1 0 1,0 -2,0 M 83.14 -274 m -0.5, 0 a 0.5,0.5 0 1,0 1,0 a 0.5,0.5 0 1,0 -1,0  M83.14 -274 L83.14 -274 95.14 -274 M89.14 -268 L89.14 -268 89.14 -280" id="h1398960369" class="r"></path><path d="M 273 -172 m -1, 0 a 1,1 0 1,0 2,0 a 1,1 0 1,0 -2,0 M 273 -172 m -0.5, 0 a 0.5,0.5 0 1,0 1,0 a 0.5,0.5 0 1,0 -1,0  M273 -172 L273 -172 261 -172 M267 -166 L267 -166 267 -178 M261 -172 Q 219.79 -172, 178.58 -175 T 96.16 -178 M 84.16 -178 m -1, 0 a 1,1 0 1,0 2,0 a 1,1 0 1,0 -2,0 M 84.16 -178 m -0.5, 0 a 0.5,0.5 0 1,0 1,0 a 0.5,0.5 0 1,0 -1,0  M84.16 -178 L84.16 -178 96.16 -178 M90.16 -172 L90.16 -172 90.16 -184" id="h2286254435" class="r"></path><path d="M 273 -147 m -1, 0 a 1,1 0 1,0 2,0 a 1,1 0 1,0 -2,0 M 273 -147 m -0.5, 0 a 0.5,0.5 0 1,0 1,0 a 0.5,0.5 0 1,0 -1,0  M273 -147 L273 -147 261 -147 M267 -141 L267 -141 267 -153 M261 -147 C -73.80000000000001 -147, 33 -173, 83 -173 M 95 -173 m -1, 0 a 1,1 0 1,0 2,0 a 1,1 0 1,0 -2,0 M 95 -173 m -0.5, 0 a 0.5,0.5 0 1,0 1,0 a 0.5,0.5 0 1,0 -1,0  M95 -173 L95 -173 83 -173 M89 -167 L89 -167 89 -179" id="h1397587031" class="r"></path><path d="M 197.17 87 m -1, 0 a 1,1 0 1,0 2,0 a 1,1 0 1,0 -2,0 M 197.17 87 m -0.5, 0 a 0.5,0.5 0 1,0 1,0 a 0.5,0.5 0 1,0 -1,0  M197.17 87 L197.17 87 209.17 87 M203.17 93 L203.17 93 203.17 81 M209.17 87 C 259.16999999999996 87, 326.976 -178, 96.16 -178 M 84.16 -178 m -1, 0 a 1,1 0 1,0 2,0 a 1,1 0 1,0 -2,0 M 84.16 -178 m -0.5, 0 a 0.5,0.5 0 1,0 1,0 a 0.5,0.5 0 1,0 -1,0  M84.16 -178 L84.16 -178 96.16 -178 M90.16 -172 L90.16 -172 90.16 -184" id="h1139284389" class="r"></path><path d="M 30 112 m -1, 0 a 1,1 0 1,0 2,0 a 1,1 0 1,0 -2,0 M 30 112 m -0.5, 0 a 0.5,0.5 0 1,0 1,0 a 0.5,0.5 0 1,0 -1,0  M30 112 L30 112 18 112 M24 118 L24 118 24 106 M18 112 C -32 112, -71 -173, 83 -173 M 95 -173 m -1, 0 a 1,1 0 1,0 2,0 a 1,1 0 1,0 -2,0 M 95 -173 m -0.5, 0 a 0.5,0.5 0 1,0 1,0 a 0.5,0.5 0 1,0 -1,0  M95 -173 L95 -173 83 -173 M89 -167 L89 -167 89 -179" id="h1607168654" class="r"></path><path d="M 205 87 m -1, 0 a 1,1 0 1,0 2,0 a 1,1 0 1,0 -2,0 M 205 87 m -0.5, 0 a 0.5,0.5 0 1,0 1,0 a 0.5,0.5 0 1,0 -1,0  M205 87 L205 87 193 87 M199 93 L199 93 199 81 M193 87 Q 168.79 87, 144.58 -45.5 T 96.16 -178 M 84.16 -178 m -1, 0 a 1,1 0 1,0 2,0 a 1,1 0 1,0 -2,0 M 84.16 -178 m -0.5, 0 a 0.5,0.5 0 1,0 1,0 a 0.5,0.5 0 1,0 -1,0  M84.16 -178 L84.16 -178 96.16 -178 M90.16 -172 L90.16 -172 90.16 -184" id="h3177548053" class="r"></path></g><g class="hrs"></g><g class="ts"><svg width="161.14" height="100" x="-78" y="-331" id="h311790747" class="t"><rect height="40" width="161.14" class="th"></rect><text x="13" y="25" class="tht">titles</text><rect height="60" width="161.14" class="t-bg"></rect><text x="13" y="61" class="tf pk">title_ID<tspan x="148.14" class="ty">VARCHAR</tspan></text><path d="M7,14A2,2 0 0,1 5,12A2,2 0 0,1 7,10A2,2 0 0,1 9,12A2,2 0 0,1 7,14M12.65,10C11.83,7.67 9.61,6 7, 6A6, 6 0 0, 0 1, 12A6, 6 0 0, 0 7, 18C9.61, 18 11.83, 16.33 12.65, 14H17V18H21V14H23V10H12.65Z" class="i pk" transform="translate(70.34898437499999, 48) scale(0.65)"></path><text x="13" y="86" class="tf">title<tspan x="148.14" class="ty">VARCHAR</tspan></text></svg><svg width="171.16" height="225" x="-87" y="-235" id="h1639608377" class="t"><rect height="40" width="171.16" class="th"></rect><text x="13" y="25" class="tht">employees</text><rect height="185" width="171.16" class="t-bg"></rect><text x="13" y="61" class="tf pk">emp_no<tspan x="158.16" class="ty">INT</tspan></text><path d="M7,14A2,2 0 0,1 5,12A2,2 0 0,1 7,10A2,2 0 0,1 9,12A2,2 0 0,1 7,14M12.65,10C11.83,7.67 9.61,6 7, 6A6, 6 0 0, 0 1, 12A6, 6 0 0, 0 7, 18C9.61, 18 11.83, 16.33 12.65, 14H17V18H21V14H23V10H12.65Z" class="i pk" transform="translate(118.829921875, 48) scale(0.65)"></path><text x="13" y="86" class="tf fk">emp_title_ID<tspan x="158.16" class="ty">VARCHAR</tspan></text><text x="13" y="111" class="tf">birth_date<tspan x="158.16" class="ty">DATE</tspan></text><text x="13" y="136" class="tf">first_name<tspan x="158.16" class="ty">VARCHAR</tspan></text><text x="13" y="161" class="tf">last_name<tspan x="158.16" class="ty">VARCHAR</tspan></text><text x="13" y="186" class="tf">sex<tspan x="158.16" class="ty">VARCHAR</tspan></text><text x="13" y="211" class="tf">hire_date<tspan x="158.16" class="ty">DATE</tspan></text></svg><svg width="167.17" height="100" x="95" y="-230" id="h475896179" class="t"><rect height="40" width="167.17" class="th"></rect><text x="13" y="25" class="tht">departments</text><rect height="60" width="167.17" class="t-bg"></rect><text x="13" y="61" class="tf pk">dept_no<tspan x="154.17" class="ty">VARCHAR</tspan></text><path d="M7,14A2,2 0 0,1 5,12A2,2 0 0,1 7,10A2,2 0 0,1 9,12A2,2 0 0,1 7,14M12.65,10C11.83,7.67 9.61,6 7, 6A6, 6 0 0, 0 1, 12A6, 6 0 0, 0 7, 18C9.61, 18 11.83, 16.33 12.65, 14H17V18H21V14H23V10H12.65Z" class="i pk" transform="translate(76.37898437499999, 48) scale(0.65)"></path><text x="13" y="86" class="tf">dept_name<tspan x="154.17" class="ty">VARCHAR</tspan></text></svg><svg width="167.17" height="100" x="273" y="-229" id="h1676682957" class="t"><rect height="40" width="167.17" class="th"></rect><text x="13" y="25" class="tht">dept_manager</text><rect height="60" width="167.17" class="t-bg"></rect><text x="13" y="61" class="tf pk">emp_no<tspan x="154.17" class="ty">INT</tspan></text><path d="M7,14A2,2 0 0,1 5,12A2,2 0 0,1 7,10A2,2 0 0,1 9,12A2,2 0 0,1 7,14M12.65,10C11.83,7.67 9.61,6 7, 6A6, 6 0 0, 0 1, 12A6, 6 0 0, 0 7, 18C9.61, 18 11.83, 16.33 12.65, 14H17V18H21V14H23V10H12.65Z" class="i pk" transform="translate(114.83992187499999, 48) scale(0.65)"></path><text x="13" y="86" class="tf pk">dept_no<tspan x="154.17" class="ty">VARCHAR</tspan></text><path d="M7,14A2,2 0 0,1 5,12A2,2 0 0,1 7,10A2,2 0 0,1 9,12A2,2 0 0,1 7,14M12.65,10C11.83,7.67 9.61,6 7, 6A6, 6 0 0, 0 1, 12A6, 6 0 0, 0 7, 18C9.61, 18 11.83, 16.33 12.65, 14H17V18H21V14H23V10H12.65Z" class="i pk" transform="translate(76.37898437499999, 73) scale(0.65)"></path></svg><svg width="167.17" height="100" x="30" y="30" id="h1090417462" class="t"><rect height="40" width="167.17" class="th"></rect><text x="13" y="25" class="tht">dept_emp</text><rect height="60" width="167.17" class="t-bg"></rect><text x="13" y="61" class="tf pk">emp_no<tspan x="154.17" class="ty">INT</tspan></text><path d="M7,14A2,2 0 0,1 5,12A2,2 0 0,1 7,10A2,2 0 0,1 9,12A2,2 0 0,1 7,14M12.65,10C11.83,7.67 9.61,6 7, 6A6, 6 0 0, 0 1, 12A6, 6 0 0, 0 7, 18C9.61, 18 11.83, 16.33 12.65, 14H17V18H21V14H23V10H12.65Z" class="i pk" transform="translate(114.83992187499999, 48) scale(0.65)"></path><text x="13" y="86" class="tf pk">dept_no<tspan x="154.17" class="ty">VARCHAR</tspan></text><path d="M7,14A2,2 0 0,1 5,12A2,2 0 0,1 7,10A2,2 0 0,1 9,12A2,2 0 0,1 7,14M12.65,10C11.83,7.67 9.61,6 7, 6A6, 6 0 0, 0 1, 12A6, 6 0 0, 0 7, 18C9.61, 18 11.83, 16.33 12.65, 14H17V18H21V14H23V10H12.65Z" class="i pk" transform="translate(76.37898437499999, 73) scale(0.65)"></path></svg><svg width="128.7" height="100" x="205" y="30" id="h2472833127" class="t"><rect height="40" width="128.7" class="th"></rect><text x="13" y="25" class="tht">salaries</text><rect height="60" width="128.7" class="t-bg"></rect><text x="13" y="61" class="tf pk">emp_no<tspan x="115.69999999999999" class="ty">INT</tspan></text><path d="M7,14A2,2 0 0,1 5,12A2,2 0 0,1 7,10A2,2 0 0,1 9,12A2,2 0 0,1 7,14M12.65,10C11.83,7.67 9.61,6 7, 6A6, 6 0 0, 0 1, 12A6, 6 0 0, 0 7, 18C9.61, 18 11.83, 16.33 12.65, 14H17V18H21V14H23V10H12.65Z" class="i pk" transform="translate(76.36992187499999, 48) scale(0.65)"></path><text x="13" y="86" class="tf">salary<tspan x="115.69999999999999" class="ty">INT</tspan></text></svg></g></g><text class="qdbd-link" x="10" y="20">www.quickdatabasediagrams.com</text></svg>